<svg width="1920" height="640" viewBox="0 0 1920 640" fill="none" xmlns="http://www.w3.org/2000/svg">
    <rect x="1268.14" width="205.714" height="205.714" fill="#121923"/>
    <rect x="1268.14" y="434.286" width="205.714" height="205.714" fill="#121923"/>
    <rect x="1376.71" y="217.143" width="205.714" height="205.714" fill="#121923"/>
    <rect x="-34.7144" width="205.714" height="205.714" fill="#121923"/>
    <rect x="1702.43" width="205.714" height="205.714" fill="#121923"/>
    <rect x="-34.7144" y="434.286" width="205.714" height="205.714" fill="#121923"/>
    <rect x="1702.43" y="434.286" width="205.714" height="205.714" fill="#121923"/>
    <rect x="73.8569" y="217.143" width="205.714" height="205.714" fill="#121923"/>
    <rect x="1811" y="217.143" width="205.714" height="205.714" fill="#121923"/>
    <rect x="399.571" width="205.714" height="205.714" fill="#121923"/>
    <rect x="399.571" y="434.286" width="205.714" height="205.714" fill="#121923"/>
    <rect x="508.143" y="217.143" width="205.714" height="205.714" fill="#121923"/>
    <rect x="833.857" width="205.714" height="205.714" fill="#121923"/>
    <rect x="833.857" y="434.286" width="205.714" height="205.714" fill="#121923"/>
    <rect x="942.428" y="217.143" width="205.714" height="205.714" fill="#121923"/>
    <rect x="1485.29" width="205.714" height="205.714" fill="#121923"/>
    <rect x="1485.29" y="434.286" width="205.714" height="205.714" fill="#121923"/>
    <rect x="-143.286" y="217.143" width="205.714" height="205.714" fill="#121923"/>
    <rect x="1593.86" y="217.143" width="205.714" height="205.714" fill="#121923"/>
    <rect x="182.429" width="205.714" height="205.714" fill="#121923"/>
    <rect x="1919.57" width="205.714" height="205.714" fill="#121923"/>
    <rect x="182.429" y="434.286" width="205.714" height="205.714" fill="#121923"/>
    <rect x="1919.57" y="434.286" width="205.714" height="205.714" fill="#121923"/>
    <rect x="291" y="217.143" width="205.714" height="205.714" fill="#121923"/>
    <rect x="616.714" width="205.714" height="205.714" fill="#121923"/>
    <rect x="616.714" y="434.286" width="205.714" height="205.714" fill="#121923"/>
    <rect x="725.286" y="217.143" width="205.714" height="205.714" fill="#121923"/>
    <rect x="1051" width="205.714" height="205.714" fill="#121923"/>
    <rect x="1051" y="434.286" width="205.714" height="205.714" fill="#121923"/>
    <rect x="1159.57" y="217.143" width="205.714" height="205.714" fill="#121923"/>
</svg>
