<svg width="170" height="49" viewBox="0 0 170 49" fill="none" xmlns="http://www.w3.org/2000/svg">
    <path d="M74.6256 3.70215L85.0715 27.9075H79.8409L72.0103 9.7867L66.2425 23.1617L72.8391 19.7622L73.7832 21.4734L64.1964 27.9075H58.9492L69.3951 3.70215H74.6256Z" fill="#F2F2F2"/>
    <path d="M92.8306 11.0404V27.8927H88.0205V3.7041H92.9277L107.262 20.5564V3.7041H112.072V27.8927H107.182L92.8306 11.0404Z" fill="#F2F2F2"/>
    <path fill-rule="evenodd" clip-rule="evenodd" d="M132.919 27.8907L124.902 27.9075V27.8907C119.557 27.8907 116.884 25.2026 116.884 19.8279V11.765C116.884 6.39028 119.557 3.70215 124.902 3.70215H132.919C138.263 3.70215 140.936 6.39028 140.936 11.765V19.8279C140.936 25.1919 138.263 27.8801 132.919 27.8907ZM132.117 23.0533C134.79 23.0533 136.126 21.71 136.126 19.0219V12.571C136.126 9.88286 134.79 8.53956 132.117 8.53956H124.902C122.763 8.53956 121.694 9.88286 121.694 12.571V19.0219C121.694 21.71 123.03 23.0533 125.703 23.0533H132.117Z" fill="#F2F2F2"/>
    <path d="M150.556 11.0404V27.8927H145.746V3.7041H150.653L164.988 20.5564V3.7041H169.798V27.8927H164.908L150.556 11.0404Z" fill="#F2F2F2"/>
    <path d="M66.0982 41.9584L63.4936 35.9288L60.8935 41.9584H59.1479L62.6239 33.9062H64.3648L67.8392 41.9584H66.0998H66.0982Z" fill="#00FFD4"/>
    <path d="M73.7073 36.3476V41.9575H72.106V33.9053H73.7392L78.5113 39.5151V33.9053H80.1126V41.9575H78.484L73.7058 36.3476H73.7073Z" fill="#00FFD4"/>
    <path fill-rule="evenodd" clip-rule="evenodd" d="M90.3324 41.9584L87.664 41.963V41.9584C85.8851 41.9584 84.9956 41.0639 84.9956 39.2749V36.5898C84.9956 34.8008 85.8851 33.9062 87.664 33.9062H90.3324C92.1113 33.9062 93.0023 34.8008 93.0023 36.5898V39.2749C93.0023 41.0609 92.1128 41.9554 90.3324 41.9584ZM90.0653 40.348C90.9547 40.348 91.3994 39.9007 91.3994 39.0062V36.8585C91.3994 35.9639 90.9547 35.5167 90.0653 35.5167H87.6625C86.9506 35.5167 86.5954 35.9639 86.5954 36.8585V39.0062C86.5954 39.9007 87.0402 40.348 87.9296 40.348H90.0653Z" fill="#00FFD4"/>
    <path d="M99.4837 36.3476V41.9575H97.8823V33.9053H99.5155L104.288 39.5151V33.9053H105.889V41.9575H104.26L99.4821 36.3476H99.4837Z" fill="#00FFD4"/>
    <path d="M118.859 33.9053L115.383 41.9575H113.643L110.167 33.9053H111.913L114.513 39.9333L117.118 33.9053H118.857H118.859Z" fill="#00FFD4"/>
    <path d="M124.727 40.348H131.132V41.9584H123.125V33.9062H131.132V35.5167H124.727V37.1271H131.132V38.7376H124.727V40.348Z" fill="#00FFD4"/>
    <path fill-rule="evenodd" clip-rule="evenodd" d="M138.395 38.7366H137.615V41.9575H136.014V33.9053H141.352C143.131 33.9053 144.022 34.7113 144.022 36.3217C144.022 37.9321 143.132 38.7381 141.352 38.7381H140.856L144.614 41.959H142.153L138.395 38.7381V38.7366ZM141.085 37.1261C141.974 37.1261 142.419 36.8575 142.419 36.3202C142.419 35.7828 141.974 35.5142 141.085 35.5142H137.615V37.1246H141.085V37.1261Z" fill="#00FFD4"/>
    <path d="M151.572 38.7361C149.793 38.7361 148.902 37.9302 148.902 36.3197C148.902 34.7093 149.791 33.9033 151.572 33.9033H156.91V35.5138H151.839C150.949 35.5138 150.505 35.7824 150.505 36.3197C150.505 36.8571 150.949 37.1257 151.839 37.1257H154.242C156.021 37.1257 156.912 37.9317 156.912 39.5421C156.912 41.1526 156.022 41.9585 154.242 41.9585H148.903V40.3481H153.974C154.864 40.3481 155.309 40.0794 155.309 39.5421C155.309 39.0048 154.864 38.7361 153.974 38.7361H151.572Z" fill="#00FFD4"/>
    <path d="M163.393 40.348H169.798V41.9584H161.792V33.9062H169.798V35.5167H163.393V37.1271H169.798V38.7376H163.393V40.348Z" fill="#00FFD4"/>
    <path d="M44.827 10.3175L29.3115 14.729L13.7944 10.3175L17.4798 0H29.3115H41.1432L44.827 10.3175Z" fill="#F2F2F2"/>
    <path d="M58.6227 14.4791L29.3113 26.8802L0 14.4791L11.1987 12.0459L29.3113 17.6343L47.4239 12.0459L58.6227 14.4791Z" fill="#F2F2F2"/>
    <path d="M40.5555 32.0404C39.3063 34.4736 38.0586 36.632 36.6895 38.6332C35.7773 39.9674 33.3168 42.2037 29.3112 45.3436C25.3056 42.2037 22.8452 39.9674 21.9329 38.6332C20.5638 36.632 19.3146 34.4736 18.0669 32.0404C16.8177 29.6072 16.496 29.4316 16.5051 27.3281C18.9215 29.5018 21.8874 30.5887 25.4027 30.5887C28.2973 30.5887 30.3251 30.5887 33.2197 30.5887C36.9764 30.5887 39.9423 29.5018 42.1174 27.3281C42.1174 29.4774 41.8047 29.6072 40.5555 32.0404Z" fill="#F2F2F2"/>
    <path d="M38.4671 32.1875C38.4534 32.2241 37.2983 34.6894 36.8946 35.5457C36.7898 35.7701 36.4999 36.0235 36.2707 36.051C34.5206 36.2693 32.7675 36.454 31.0113 36.6005C30.767 36.6204 30.4315 36.4265 30.2585 36.2281C29.9094 35.8281 29.6407 35.3565 29.2992 34.8527C28.9562 35.3565 28.689 35.8281 28.3399 36.2281C28.1669 36.4265 27.8314 36.6204 27.5871 36.6005C25.8309 36.4555 24.0778 36.2708 22.3277 36.051C22.097 36.022 21.8086 35.7701 21.7038 35.5457C21.2986 34.6909 20.145 32.2241 20.1313 32.1875C20.6125 32.1508 21.0861 32.0623 21.5475 31.9219C21.5384 32.0486 21.5505 32.1783 21.5855 32.2989C21.5794 32.302 22.1349 33.7536 22.478 34.4909C22.5584 34.6634 22.8225 34.8527 23.0046 34.8573C24.0307 34.8787 25.0568 34.8558 26.0844 34.8252C26.2058 34.8222 26.3637 34.7092 26.4335 34.5993C26.6855 34.2116 26.9359 33.8178 27.1302 33.398C27.3442 32.9324 27.1939 32.7859 26.6824 32.7843C26.4578 32.7843 26.1739 32.6989 25.9493 32.6195C25.9796 32.5264 26.0707 32.3737 26.0996 32.2821C26.4062 32.3829 26.7386 32.4348 27.0103 32.592C27.3503 32.7904 27.6326 33.0912 27.9589 33.3186C28.4568 33.6666 28.8803 33.8422 29.3007 33.8483C29.7196 33.8422 30.1446 33.6666 30.6425 33.3186C30.9688 33.0912 31.2512 32.792 31.5912 32.592C31.8644 32.4348 32.1953 32.3829 32.5019 32.2821C32.5307 32.3737 32.6218 32.5264 32.6521 32.6195C32.4275 32.6989 32.1437 32.7843 31.919 32.7843C31.4075 32.7859 31.2572 32.9309 31.4712 33.398C31.6655 33.8178 31.9175 34.2116 32.1679 34.5993C32.2378 34.7092 32.3956 34.8222 32.5171 34.8252C33.5446 34.8558 34.5722 34.8787 35.5968 34.8573C35.7789 34.8542 36.043 34.6634 36.1235 34.4909C36.4665 33.7536 37.0205 32.3035 37.016 32.2989C37.0494 32.1783 37.063 32.0501 37.0539 31.9219C37.5154 32.0623 37.9889 32.1508 38.4701 32.1875H38.4671Z" fill="black"/>
    <path d="M27.021 40.1445C28.5631 40.1445 30.1053 40.1445 31.6034 40.1445C31.057 41.4573 29.8746 44.2676 29.6924 46.0596C29.6059 46.9114 29.4921 48.1128 29.3904 48.9615C29.3403 48.963 29.2917 48.963 29.2416 48.9645C29.1278 47.9967 29.0018 47.029 28.9031 46.0596C28.7286 44.3515 27.5371 41.3901 27.0225 40.1445H27.021Z" fill="black"/>
    <path d="M17.173 23.9883C19.8444 25.7224 22.9909 26.9726 26.611 27.7388C25.2207 28.3876 23.1685 28.2792 20.4516 27.4122C18.1232 26.6688 16.6008 25.1423 17.173 23.9883Z" fill="#00FFD4"/>
    <path d="M38.1712 27.4112C35.4542 28.2782 33.4021 28.3866 32.0117 27.7379C35.6318 26.9731 38.7783 25.7229 41.4498 23.9873C42.022 25.1413 40.4996 26.6678 38.1712 27.4112Z" fill="#00FFD4"/>
</svg>
