<svg width="95" height="79" viewBox="0 0 95 79" fill="none" xmlns="http://www.w3.org/2000/svg">
    <path d="M72.3334 16.6388L47.3117 23.7532L22.2876 16.6388L28.2309 0H47.3117H66.3925L72.3334 16.6388Z" fill="#F2F2F2"/>
    <path d="M94.5813 23.3493L47.3114 43.3484L0.0415039 23.3493L18.1015 19.4253L47.3114 28.4377L76.5213 19.4253L94.5813 23.3493Z" fill="#F2F2F2"/>
    <path d="M65.4447 51.6716C63.4302 55.5956 61.4181 59.0765 59.2101 62.3038C57.739 64.4554 53.7711 68.0618 47.3113 73.1256C40.8515 68.0618 36.8835 64.4554 35.4124 62.3038C33.2045 59.0765 31.1899 55.5956 29.1778 51.6716C27.1632 47.7476 26.6443 47.4645 26.659 44.0723C30.5559 47.5778 35.339 49.3305 41.0081 49.3305C45.6761 49.3305 48.9464 49.3305 53.6144 49.3305C59.6728 49.3305 64.4558 47.5778 67.9635 44.0723C67.9635 47.5384 67.4593 47.7476 65.4447 51.6716Z" fill="#F2F2F2"/>
    <path d="M62.0765 51.9078C62.0545 51.9669 60.1917 55.9426 59.5406 57.3236C59.3717 57.6855 58.9042 58.0942 58.5345 58.1385C55.7122 58.4905 52.885 58.7884 50.0528 59.0247C49.6587 59.0567 49.1178 58.7441 48.8387 58.424C48.2757 57.7791 47.8424 57.0184 47.2917 56.206C46.7385 57.0184 46.3077 57.7791 45.7447 58.424C45.4656 58.7441 44.9246 59.0567 44.5305 59.0247C41.6984 58.7908 38.8712 58.493 36.0488 58.1385C35.6768 58.0917 35.2117 57.6855 35.0428 57.3236C34.3892 55.9451 32.5289 51.9669 32.5068 51.9078C33.2828 51.8488 34.0465 51.706 34.7907 51.4795C34.776 51.6838 34.7956 51.8931 34.8519 52.0875C34.8421 52.0925 35.738 54.4336 36.2912 55.6226C36.4209 55.9008 36.8468 56.206 37.1406 56.2134C38.7953 56.2479 40.45 56.2109 42.1072 56.1617C42.303 56.1568 42.5576 55.9746 42.6702 55.7974C43.0765 55.1721 43.4804 54.537 43.7937 53.86C44.1389 53.1092 43.8966 52.8728 43.0716 52.8704C42.7094 52.8704 42.2516 52.7325 41.8893 52.6045C41.9383 52.4543 42.0852 52.2082 42.1317 52.0605C42.6261 52.2229 43.1622 52.3066 43.6004 52.5602C44.1487 52.8802 44.604 53.3652 45.1303 53.732C45.9331 54.2932 46.6161 54.5763 47.2941 54.5862C47.9697 54.5763 48.6551 54.2932 49.458 53.732C49.9843 53.3652 50.4396 52.8827 50.9879 52.5602C51.4285 52.3066 51.9621 52.2229 52.4566 52.0605C52.5031 52.2082 52.65 52.4543 52.6989 52.6045C52.3366 52.7325 51.8789 52.8704 51.5166 52.8704C50.6917 52.8728 50.4494 53.1067 50.7945 53.86C51.1078 54.537 51.5142 55.1721 51.9181 55.7974C52.0307 55.9746 52.2852 56.1568 52.4811 56.1617C54.1382 56.2109 55.7954 56.2479 57.4477 56.2134C57.7414 56.2085 58.1674 55.9008 58.2971 55.6226C58.8503 54.4336 59.7438 52.0949 59.7364 52.0875C59.7903 51.8931 59.8123 51.6863 59.7976 51.4795C60.5417 51.706 61.3055 51.8488 62.0814 51.9078H62.0765Z" fill="black"/>
    <path d="M43.6177 64.7407C46.1047 64.7407 48.5917 64.7407 51.0077 64.7407C50.1264 66.8578 48.2196 71.3899 47.9258 74.2799C47.7863 75.6536 47.6027 77.591 47.4387 78.9597C47.358 78.9621 47.2796 78.9621 47.1988 78.9646C47.0153 77.4039 46.8121 75.8431 46.653 74.2799C46.3715 71.5252 44.4499 66.7495 43.6201 64.7407H43.6177Z" fill="black"/>
    <path d="M27.7358 38.6858C32.0439 41.4823 37.1183 43.4985 42.9563 44.7343C40.7141 45.7805 37.4047 45.6057 33.0231 44.2075C29.2681 43.0086 26.8129 40.5469 27.7358 38.6858Z" fill="#00FFD4"/>
    <path d="M61.5998 44.2053C57.2182 45.6035 53.9087 45.7783 51.6665 44.7321C57.5046 43.4987 62.5789 41.4826 66.8871 38.6836C67.8099 40.5447 65.3548 43.0064 61.5998 44.2053Z" fill="#00FFD4"/>
</svg>
