<svg width="60" height="82" viewBox="0 0 60 82" fill="none" xmlns="http://www.w3.org/2000/svg">
    <path d="M49.2914 59.3896C49.1058 60.9973 48.8794 62.9538 48.6727 64.7405L49.3322 66.0167C48.8168 66.0167 48.4266 66.1254 48.2976 65.9888C48.1429 65.8241 48.1867 65.4503 48.1844 65.1672C48.1761 63.7649 48.1806 62.3618 48.1806 60.588C45.1961 62.6782 45.218 65.1777 45.1621 67.604C45.1093 69.9842 45.2067 72.3674 45.2316 74.7491C45.2414 75.7437 45.2316 76.7389 44.7494 77.7697C44.5984 77.1173 44.452 76.4648 44.2875 75.7406L44.4898 75.4476C44.4898 71.8003 44.5298 68.5147 44.4196 65.2344C44.4098 64.9459 43.3118 64.3524 42.899 64.4792C41.4441 64.9323 40.0669 65.6338 38.5977 66.2674L37.7449 65.5591V75.3872L36.8213 75.1041V66.0295L34.8675 66.753L34.6412 66.6669L31.7653 67.826L30.9865 67.6531L29.2094 69.9276C27.1425 70.6827 25.9343 77.3733 27.1515 81.4518L26.6452 82V75.2793L25.7894 75.5126C25.7645 75.5964 25.7139 75.7663 25.6347 76.0284L24.1972 77.1731C24.3866 74.2455 24.5609 71.5564 24.7382 68.819L24.533 68.8598L22.5377 66.5007L22.2049 66.5521L19.4649 64.3335C19.2438 65.6338 19.0785 66.611 18.9125 67.5881L19.3811 67.635C19.3811 68.184 19.4204 68.739 19.3328 69.2736C19.3208 69.3431 18.6537 69.3046 18.2877 69.3159C18.3382 68.7782 18.2266 68.1477 18.4711 67.7203C19.0348 66.7386 17.9979 63.9302 16.9082 63.1253C15.4375 62.0394 14.1327 60.73 12.7427 59.5323C12.1133 58.9894 11.45 58.4849 10.4162 57.652C10.2924 59.5927 10.1898 61.1664 10.0932 62.7401C10.0178 64.0465 9.90833 65.3529 9.89324 66.6608C9.88796 67.1509 10.134 67.6425 10.2049 68.1379C10.2351 68.3501 10.174 68.6506 10.0328 68.7866C9.91135 68.9051 9.50461 68.9451 9.42537 68.85C9.25612 68.6399 9.16824 68.3758 9.17785 68.1062C9.26992 66.8277 9.44726 65.5553 9.52045 64.2761C9.60648 62.7779 10.0721 61.0954 9.56422 59.8117C8.55302 57.2593 7.01057 54.9139 5.64395 52.5072C5.04025 51.441 4.32788 50.4351 3.64193 49.3643L3.29178 49.6105C2.38623 47.1858 1.49879 44.7867 0.627954 42.445C-1.37105 31.5906 3.04426 23.2025 10.8418 15.7787L5.53151 7.88523L5.03345 8.19182L5.0893 7.80594L5.96164 7.3657L12.7963 11.2675C12.5842 11.6405 12.6514 11.5227 12.7208 11.408C15.2292 13.7542 17.5466 11.3876 19.9411 11.0999C22.0336 10.8484 24.1066 10.4293 26.2007 10.1839C27.5432 10.0268 28.9068 10.0253 30.2621 10.0087C30.6998 10.0034 31.1405 10.1718 31.6815 9.87201L41.7112 11.7327C41.7067 11.4729 41.7014 11.2124 41.6969 10.9519L43.5518 7.34682L44.6264 5.81841C44.6354 5.87354 44.6113 5.73384 44.5215 5.22336L47.1196 1.86676L47.7716 2.49429L49.9699 0.658539C49.7676 1.39178 49.6906 1.67194 49.6114 1.9604L49.2552 1.7769C49.2167 2.16731 49.185 2.48371 49.1534 2.80087L48.847 2.64984L45.8345 9.46272C45.6413 10.3689 45.5576 10.7585 45.3893 11.5477L45.3991 11.636C45.2248 11.7583 45.0505 11.8792 44.8588 12.0136C44.8964 12.0811 44.9375 12.1466 44.9818 12.2099C44.9395 12.8208 44.9139 13.209 44.8686 13.875L50.2966 18.646L50.8618 18.2926L59.5611 34.6791L59.0503 34.9812V38.7848L59.3287 38.7969C58.804 41.6433 58.279 44.4894 57.7538 47.3353L57.3199 47.2598L56.4053 49.8393L55.4922 50.519L54.8787 50.67L55.7933 51.1148L53.9513 52.8327L49.2914 59.3896ZM31.9638 60.8327C38.0521 60.9716 42.2478 58.3007 45.9243 54.389C49.5465 50.5378 52.7454 46.5024 52.8933 40.7089L52.8623 40.6636V36.2355C53.3393 34.3295 50.2287 25.4936 48.1837 24.8578C48.1837 26.1173 48.1542 27.2689 48.192 28.4175C48.2259 29.4573 48.3331 30.4949 48.4085 31.5332L47.4886 31.5951C47.7543 28.1132 48.5927 24.5436 46.3024 21.4506L45.6768 21.3449C45.63 21.1976 45.59 21.073 45.6836 21.366L44.4309 19.9146L44.1064 20.0128L43.0303 19.1595L42.6983 19.4729L42.1391 19.2229C42.2289 19.7409 42.2983 20.1442 42.4206 20.8533L41.8924 21.295L38.5924 28.6372L38.4135 28.558L34.0163 41.5675L34.3936 41.6936C34.2246 42.2298 34.0548 42.7652 33.7484 43.7325C33.716 43.3957 33.7296 43.543 33.7069 43.3074C32.6271 47.5558 31.6362 51.45 30.6017 55.5195L30.7284 55.7981C30.6047 55.9673 30.496 56.1138 30.6967 55.8419V59.8321L31.7675 61.0841L31.9638 60.8327ZM26.4127 54.5605L26.941 54.6262C27.1575 53.7056 27.3741 52.7851 27.6345 51.6811L27.7975 51.5361L27.3688 51.3677L29.5459 44.6183L29.5739 44.5866C29.9338 43.5505 30.2696 42.5817 30.6658 41.4399L30.8484 41.2926L30.4319 41.1341L36.5013 24.4402L36.376 24.4017C36.5692 23.79 36.7624 23.1783 36.9948 22.4451C37.2793 21.6492 37.6023 20.7491 37.9585 19.7545L38.4664 18.9994L37.0635 19.133L38.6052 18.2269L38.16 17.8629C39.3893 15.9056 38.2558 14.8423 33.5892 13.7557H25.0363V14.1287L24.5994 13.9996C21.6005 15.081 23.9602 17.7398 22.5053 19.377C22.4396 17.8901 22.3747 16.404 22.3113 14.9677L17.9104 16.0083L17.3769 16.3904C17.1505 16.8352 16.8562 17.1342 16.9029 17.3645C17.2803 19.2229 17.6432 21.0896 18.1519 22.914C19.1917 26.6399 20.3803 30.325 21.3967 34.0576C22.3325 37.5026 23.1158 40.9876 23.9693 44.4567C24.4356 46.3526 24.9032 48.248 25.3721 50.1429L25.4989 50.1066C25.7328 51.034 25.967 51.961 26.2014 52.8878L26.046 52.9218L26.4127 54.5605ZM12.5789 19.9962C8.67376 21.6514 2.90541 32.715 4.42598 34.6399L4.50144 34.5998C3.82228 40.4763 6.34424 45.3183 10.0185 49.6543C13.612 53.8959 17.3565 58.0364 22.6773 60.4596C22.9369 59.6509 23.1052 59.1291 23.2682 58.6209L22.7981 57.9412V55.3556L23.0245 55.2733L17.9375 32.3563L17.2471 32.5073C17.3497 32.3608 17.4523 32.2136 17.527 32.1079L16.5671 31.0107L17.2727 30.6474L12.5789 19.9962Z" fill="#E60000"/>
</svg>
